<svg xmlns="http://www.w3.org/2000/svg" xmlns:xlink="http://www.w3.org/1999/xlink" width="32.126" height="32.126" viewBox="0 0 32.126 32.126">
  <defs>
    <linearGradient id="linear-gradient" x1="0.5" x2="0.5" y2="1" gradientUnits="objectBoundingBox">
      <stop offset="0" stop-color="#ff00b2"/>
      <stop offset="1" stop-color="#f90"/>
    </linearGradient>
  </defs>
  <g id="_004-cart" data-name="004-cart" transform="translate(-0.188 -3.188)">
    <g id="Group_3196" data-name="Group 3196" transform="translate(0.188 3.188)">
      <path id="Path_2899" data-name="Path 2899" d="M88.744,341.333a3.213,3.213,0,1,0,3.213,3.213A3.2,3.2,0,0,0,88.744,341.333Z" transform="translate(-79.106 -315.632)" fill="url(#linear-gradient)"/>
      <path id="Path_2900" data-name="Path 2900" d="M11.4,17.669H23.372a3.223,3.223,0,0,0,2.811-1.654L31.926,5.59a1.553,1.553,0,0,0,.2-.771A1.606,1.606,0,0,0,30.52,3.213H6.771L5.245,0H0V3.213H3.213L8.987,15.4,6.819,19.332a3.266,3.266,0,0,0-.394,1.55,3.212,3.212,0,0,0,3.213,3.213H28.914V20.882H10.321a.4.4,0,0,1-.4-.4.381.381,0,0,1,.048-.193Z" fill="url(#linear-gradient)"/>
      <path id="Path_2901" data-name="Path 2901" d="M302.076,341.333a3.213,3.213,0,1,0,3.213,3.213A3.2,3.2,0,0,0,302.076,341.333Z" transform="translate(-276.375 -315.632)" fill="url(#linear-gradient)"/>
    </g>
  </g>
</svg>
