<svg xmlns="http://www.w3.org/2000/svg" xmlns:xlink="http://www.w3.org/1999/xlink" width="35" height="35" viewBox="0 0 35 35">
  <defs>
    <linearGradient id="linear-gradient" x1="0.5" x2="0.5" y2="1" gradientUnits="objectBoundingBox">
      <stop offset="0" stop-color="#ff00b2"/>
      <stop offset="1" stop-color="#ffe500"/>
    </linearGradient>
  </defs>
  <path id="ic_face_24px" d="M14.25,19.062a2.188,2.188,0,1,0,2.188,2.188A2.188,2.188,0,0,0,14.25,19.062Zm10.5,0a2.188,2.188,0,1,0,2.188,2.188A2.188,2.188,0,0,0,24.75,19.062ZM19.5,2A17.5,17.5,0,1,0,37,19.5,17.506,17.506,0,0,0,19.5,2Zm0,31.5a14.019,14.019,0,0,1-14-14,14.188,14.188,0,0,1,.088-1.505,17.608,17.608,0,0,0,9.118-9.4A17.455,17.455,0,0,0,28.985,16a17.081,17.081,0,0,0,3.938-.455A13.979,13.979,0,0,1,19.5,33.5Z" transform="translate(-2 -2)" fill="url(#linear-gradient)"/>
</svg>
