<svg id="Group_11" data-name="Group 11" xmlns="http://www.w3.org/2000/svg" xmlns:xlink="http://www.w3.org/1999/xlink" width="348.826" height="129.798" viewBox="0 0 348.826 129.798">
  <defs>
    <linearGradient id="linear-gradient" x1="0.5" x2="0.5" y2="1" gradientUnits="objectBoundingBox">
      <stop offset="0" stop-color="#ff00b2"/>
      <stop offset="1" stop-color="#ffe500"/>
    </linearGradient>
  </defs>
  <g id="noun-flashlight-1045586" transform="translate(0 129.798) rotate(-90)">
    <path id="Path_8" data-name="Path 8" d="M23.963.032a4.055,4.055,0,0,0-3.3,5.956l8.111,16.218v0a4.108,4.108,0,1,0,7.351-3.672L28.018,2.313A4.059,4.059,0,0,0,23.963.032ZM64.4.032a4.055,4.055,0,0,0-3.551,4.179V20.429a4.058,4.058,0,1,0,8.115,0V4.211A4.055,4.055,0,0,0,64.4.032Zm40.94,0a4.053,4.053,0,0,0-3.548,2.28L93.677,18.531a4.108,4.108,0,1,0,7.351,3.672l8.111-16.218v0a4.056,4.056,0,0,0-3.8-5.956ZM3.3,48.81A4.055,4.055,0,0,0,0,52.864V73.133a4.049,4.049,0,0,0,.761,2.28L32.45,119V344.771a4.057,4.057,0,0,0,4.057,4.054H93.291a4.058,4.058,0,0,0,4.057-3.675q.009-.191,0-.382V119l31.688-43.583a4.071,4.071,0,0,0,.761-2.28V52.864a4.055,4.055,0,0,0-4.057-4.054H4.058a3.8,3.8,0,0,0-.761,0Zm4.815,8.109H121.683V71.741L91.135,113.677H38.66L8.114,71.741V56.918Zm32.449,64.868H89.234V340.714H40.562ZM64.39,166.257l0,0a4.058,4.058,0,0,0-3.551,4.182v8.109a4.058,4.058,0,1,0,8.115,0v-8.109a4.059,4.059,0,0,0-4.564-4.182Z" transform="translate(0 0)" fill="url(#linear-gradient)"/>
  </g>
</svg>
