<svg xmlns="http://www.w3.org/2000/svg" xmlns:xlink="http://www.w3.org/1999/xlink" width="1366" height="645" viewBox="0 0 1366 645">
  <defs>
    <linearGradient id="linear-gradient" y1="0.5" x2="1" y2="0.5" gradientUnits="objectBoundingBox">
      <stop offset="0" stop-color="#53cd9f"/>
      <stop offset="1" stop-color="#0d7a5c"/>
    </linearGradient>
    <linearGradient id="linear-gradient-2" x1="0.547" y1="-0.451" x2="0.485" y2="0.795" xlink:href="#linear-gradient"/>
    <linearGradient id="linear-gradient-3" x1="0.549" y1="-0.476" x2="0.485" y2="0.803" xlink:href="#linear-gradient"/>
    <linearGradient id="linear-gradient-8" x1="-0.083" y1="0.5" x2="1.083" y2="0.5" xlink:href="#linear-gradient"/>
    <linearGradient id="linear-gradient-9" x1="-0.124" y1="0.5" x2="1.124" y2="0.5" xlink:href="#linear-gradient"/>
    <linearGradient id="linear-gradient-10" x1="-0.047" y1="0.5" x2="1.047" y2="0.5" xlink:href="#linear-gradient"/>
    <linearGradient id="linear-gradient-17" x1="0.869" y1="-0.937" x2="0.126" y2="1.957" gradientUnits="objectBoundingBox">
      <stop offset="0" stop-color="#fb9a2b"/>
      <stop offset="1" stop-color="#e65925"/>
    </linearGradient>
    <linearGradient id="linear-gradient-18" x1="1.052" y1="-1.647" x2="0.113" y2="2.008" xlink:href="#linear-gradient-17"/>
    <linearGradient id="linear-gradient-19" x1="-0.103" y1="-5.07" x2="0.82" y2="3.275" xlink:href="#linear-gradient"/>
    <linearGradient id="linear-gradient-20" x1="0.204" y1="-3.053" x2="0.855" y2="4.68" xlink:href="#linear-gradient"/>
    <linearGradient id="linear-gradient-21" x1="-0.055" y1="-11.754" x2="0.513" y2="0.99" xlink:href="#linear-gradient"/>
    <linearGradient id="linear-gradient-22" x1="-0.294" y1="-1.342" x2="2.688" y2="5.603" xlink:href="#linear-gradient-17"/>
    <linearGradient id="linear-gradient-23" x1="-1.918" y1="-20.044" x2="0.042" y2="-3.391" xlink:href="#linear-gradient-17"/>
    <linearGradient id="linear-gradient-24" x1="-0.937" y1="-4.461" x2="1.846" y2="4.948" xlink:href="#linear-gradient-17"/>
    <linearGradient id="linear-gradient-25" x1="0.352" y1="-0.345" x2="0.694" y2="1.837" gradientUnits="objectBoundingBox">
      <stop offset="0" stop-color="#c9cd55"/>
      <stop offset="0.507" stop-color="#659c52"/>
      <stop offset="1" stop-color="#287f50"/>
    </linearGradient>
    <linearGradient id="linear-gradient-26" x1="0" y1="0.5" x2="1" y2="0.5" xlink:href="#linear-gradient-17"/>
    <linearGradient id="linear-gradient-28" x1="0.406" y1="-0.284" x2="0.7" y2="2.207" xlink:href="#linear-gradient-25"/>
    <linearGradient id="linear-gradient-29" x1="0.086" y1="2.19" x2="0.753" y2="-0.463" xlink:href="#linear-gradient-25"/>
    <linearGradient id="linear-gradient-30" y1="0.5" x2="1" y2="0.5" gradientUnits="objectBoundingBox">
      <stop offset="0" stop-color="#ff00b2"/>
      <stop offset="1" stop-color="#f90"/>
    </linearGradient>
    <linearGradient id="linear-gradient-31" x1="0.408" y1="0.013" x2="0.861" y2="2.157" xlink:href="#linear-gradient-25"/>
    <linearGradient id="linear-gradient-32" x1="-0.422" y1="1.539" x2="0.141" y2="0.901" xlink:href="#linear-gradient-25"/>
    <linearGradient id="linear-gradient-33" x1="1.369" y1="0.156" x2="-0.391" y2="0.722" gradientUnits="objectBoundingBox">
      <stop offset="0" stop-color="#00503e"/>
      <stop offset="1" stop-color="#023222"/>
    </linearGradient>
    <linearGradient id="linear-gradient-34" x1="1.051" y1="0.237" x2="-0.071" y2="0.781" xlink:href="#linear-gradient-33"/>
    <linearGradient id="linear-gradient-35" x1="0.931" y1="-0.146" x2="0.36" y2="0.734" xlink:href="#linear-gradient-25"/>
    <linearGradient id="linear-gradient-36" x1="1.808" y1="2.51" x2="1.055" y2="1.368" xlink:href="#linear-gradient-25"/>
    <linearGradient id="linear-gradient-37" x1="0.264" y1="-2.423" x2="1.844" y2="15.847" xlink:href="#linear-gradient"/>
    <linearGradient id="linear-gradient-38" x1="-1.902" y1="-8.949" x2="2.948" y2="10.615" xlink:href="#linear-gradient-17"/>
  </defs>
  <g id="Group_3719" data-name="Group 3719" transform="translate(0)">
    <g id="Ñëîé_2" data-name="Ñëîé 2" transform="translate(0)">
      <g id="Group_3688" data-name="Group 3688">
        <g id="Group_3687" data-name="Group 3687">
          <rect id="Rectangle_2204" data-name="Rectangle 2204" width="1366" height="645" transform="translate(0)" fill="#fff"/>
        </g>
      </g>
      <path id="Path_3070" data-name="Path 3070" d="M1800,644.889h558.5V0H2007.266Z" transform="translate(-992.5)" fill="#97f9e3"/>
      <path id="Path_3071" data-name="Path 3071" d="M270.872,1571.682,0,1379v192.682Z" transform="translate(0 -926.794)" fill="#97f9e3"/>
    </g>
    <g id="Layer_1" data-name="Layer 1" transform="translate(726.297 149.956)">
      <g id="Group_3718" data-name="Group 3718">
        <g id="Group_3689" data-name="Group 3689" transform="translate(0 442.83)">
          <path id="Path_3072" data-name="Path 3072" d="M2115.314,1832.079H1540.243a1.931,1.931,0,0,0-1.948,1.762,1.888,1.888,0,0,0,1.884,2.013h575.135a1.888,1.888,0,0,0,1.889-1.888h0A1.888,1.888,0,0,0,2115.314,1832.079Z" transform="translate(-1538.291 -1832.079)" fill="url(#linear-gradient)"/>
        </g>
        <g id="Group_3695" data-name="Group 3695" transform="translate(167.314 2.971)">
          <circle id="Ellipse_15" data-name="Ellipse 15" cx="30.996" cy="30.996" r="30.996" transform="matrix(0.994, -0.113, 0.113, 0.994, 0, 21.708)" fill="url(#linear-gradient-2)"/>
          <path id="Path_3073" data-name="Path 3073" d="M2132.629,533.125a30.189,30.189,0,1,1,16.173-39.511A30.223,30.223,0,0,1,2132.629,533.125Z" transform="translate(-2086.663 -456.277)" fill="url(#linear-gradient-3)"/>
          <circle id="Ellipse_16" data-name="Ellipse 16" cx="24.652" cy="24.652" r="24.652" transform="translate(0.509 57.507) rotate(-58.892)" fill="#fff"/>
          <path id="Path_3074" data-name="Path 3074" d="M2145.172,542.038a23.368,23.368,0,1,1,12.52-30.584A23.394,23.394,0,0,1,2145.172,542.038Z" transform="translate(-2101.837 -471.467)" fill="#fff"/>
          <g id="Group_3690" data-name="Group 3690" transform="translate(10.546 25.262)">
            <path id="Path_3075" data-name="Path 3075" d="M2116.144,593.7l-3.859,1.617a1.247,1.247,0,1,0,.964,2.3l3.858-1.617a1.247,1.247,0,1,0-.963-2.3Z" transform="translate(-2111.52 -563.28)" fill="url(#linear-gradient)"/>
            <path id="Path_3076" data-name="Path 3076" d="M2210.025,628.621a1.248,1.248,0,0,0-.668,1.631l1.617,3.859a1.247,1.247,0,0,0,2.3-.964l-1.617-3.859A1.248,1.248,0,0,0,2210.025,628.621Z" transform="translate(-2178.934 -587.363)" fill="url(#linear-gradient)"/>
            <path id="Path_3077" data-name="Path 3077" d="M2248.8,538.1l-3.859,1.617a1.247,1.247,0,1,0,.964,2.3l3.859-1.617a1.247,1.247,0,0,0-.964-2.3Z" transform="translate(-2203.017 -524.932)" fill="url(#linear-gradient)"/>
            <path id="Path_3078" data-name="Path 3078" d="M2154.427,495.963a1.248,1.248,0,0,0-.668,1.632l1.617,3.859a1.247,1.247,0,0,0,2.3-.963l-1.617-3.859A1.248,1.248,0,0,0,2154.427,495.963Z" transform="translate(-2140.586 -495.866)" fill="url(#linear-gradient)"/>
          </g>
          <g id="Group_3691" data-name="Group 3691" transform="translate(33.006 9.243)">
            <path id="Rectangle_2205" data-name="Rectangle 2205" d="M2.351,0H4.015A2.349,2.349,0,0,1,6.364,2.349V4.736a2.35,2.35,0,0,1-2.35,2.35H2.351A2.351,2.351,0,0,1,0,4.735V2.351A2.351,2.351,0,0,1,2.351,0Z" transform="matrix(0.07, -0.998, 0.998, 0.07, 0, 6.349)" fill="url(#linear-gradient-8)"/>
          </g>
          <g id="Group_3692" data-name="Group 3692" transform="translate(2.272 20.515)">
            <path id="Rectangle_2206" data-name="Rectangle 2206" d="M2.351,0H4.736A2.349,2.349,0,0,1,7.085,2.349V4.015A2.349,2.349,0,0,1,4.736,6.364H2.351A2.351,2.351,0,0,1,0,4.013V2.351A2.351,2.351,0,0,1,2.351,0Z" transform="translate(0 5.388) rotate(-49.497)" fill="url(#linear-gradient-9)"/>
          </g>
          <g id="Group_3693" data-name="Group 3693" transform="translate(8.735)">
            <path id="Rectangle_2207" data-name="Rectangle 2207" d="M2.287,0H6.338A2.288,2.288,0,0,1,8.626,2.288v.375A2.288,2.288,0,0,1,6.337,4.951H2.286A2.286,2.286,0,0,1,0,2.665V2.287A2.287,2.287,0,0,1,2.287,0Z" transform="matrix(0.922, -0.387, 0.387, 0.922, 5.869, 11.863)" fill="url(#linear-gradient-10)"/>
            <path id="Path_3079" data-name="Path 3079" d="M2115.866,431.778a7.753,7.753,0,1,1,4.516-1.889l.74,1.766a9.6,9.6,0,1,0-4.514,1.892Z" transform="translate(-2105.684 -414.449)" fill="url(#linear-gradient)"/>
            <path id="Path_3080" data-name="Path 3080" d="M2141.352,466.031q1.163-.488,2.342-.876l-1.969-4.7-3.672,1.539,1.945,4.641Q2140.665,466.319,2141.352,466.031Z" transform="translate(-2128.01 -446.181)" fill="url(#linear-gradient)"/>
          </g>
          <g id="Group_3694" data-name="Group 3694" transform="translate(32.026 30.386)">
            <path id="Path_3081" data-name="Path 3081" d="M2185.118,566.348a2.274,2.274,0,1,1-2.976-1.218A2.273,2.273,0,0,1,2185.118,566.348Z" transform="translate(-2180.747 -548.641)" fill="url(#linear-gradient)"/>
            <path id="Path_3082" data-name="Path 3082" d="M2188.468,512.381l-1.623,18.681a.855.855,0,0,1-1.7-.148C2185.147,530.84,2185,531.664,2188.468,512.381Z" transform="translate(-2183.775 -512.381)" fill="url(#linear-gradient)"/>
            <path id="Path_3083" data-name="Path 3083" d="M2202.728,579.772l-16.757-8.415a.855.855,0,1,1,.768-1.529C2186.805,569.861,2186.093,569.423,2202.728,579.772Z" transform="translate(-2184.025 -551.94)" fill="url(#linear-gradient)"/>
            <path id="Path_3084" data-name="Path 3084" d="M2186.867,569.858a.929.929,0,1,1-1.216-.5A.929.929,0,0,1,2186.867,569.858Z" transform="translate(-2183.737 -551.631)" fill="url(#linear-gradient)"/>
          </g>
        </g>
        <g id="Group_3696" data-name="Group 3696" transform="translate(423.583 152.335)">
          <path id="Path_3085" data-name="Path 3085" d="M2912.05,929.675a.91.91,0,0,0-.92-.276c-1.637.443-4.6-.218-6.07-.73l-1.6-7.907c1.152-1.041,3.63-2.8,5.311-3.028a.91.91,0,0,0,.74-.611l2.021-6.01a.91.91,0,0,0-.221-.934c-1.2-1.2-2.113-4.1-2.4-5.622l6.049-5.336c1.478.477,4.24,1.743,5.278,3.085a.91.91,0,0,0,.9.335l6.215-1.255a.911.911,0,0,0,.7-.658c.435-1.64,2.49-3.878,3.667-4.892l7.646,2.571c.326,1.518.611,4.544-.033,6.114a.91.91,0,0,0,.159.947l4.194,4.755a.91.91,0,0,0,.919.276c1.638-.443,4.6.218,6.07.73l1.6,7.907c-1.152,1.041-3.63,2.8-5.311,3.029a.909.909,0,0,0-.74.611l-2.021,6.01a.912.912,0,0,0,.221.935c1.2,1.2,2.113,4.1,2.4,5.622l-6.049,5.336c-1.478-.478-4.241-1.743-5.279-3.085a.91.91,0,0,0-.9-.335l-6.215,1.255a.911.911,0,0,0-.7.658c-.435,1.64-2.49,3.878-3.667,4.892l-7.646-2.571c-.326-1.519-.611-4.544.032-6.114a.911.911,0,0,0-.159-.947Zm17.392-1.94a7.944,7.944,0,1,0-9.359-6.215A7.944,7.944,0,0,0,2929.442,927.735Zm1.009,4.994a13.039,13.039,0,1,0-15.362-10.2A13.039,13.039,0,0,0,2930.45,932.729Z" transform="translate(-2903.464 -895.835)" fill="url(#linear-gradient-17)"/>
          <path id="Path_3086" data-name="Path 3086" d="M3054.012,1019.855a.72.72,0,0,1,.553-.521l4.921-.994a.721.721,0,0,1,.712.266,10.323,10.323,0,0,0,4.179,2.443l4.79-4.225a10.327,10.327,0,0,0-1.9-4.452.722.722,0,0,1-.175-.74l1.6-4.759a.721.721,0,0,1,.586-.484,10.324,10.324,0,0,0,4.205-2.4l-1.264-6.261a10.327,10.327,0,0,0-4.807-.578.721.721,0,0,1-.728-.219l-3.321-3.765a.721.721,0,0,1-.126-.75,10.317,10.317,0,0,0,.026-4.841l-6.054-2.035a10.314,10.314,0,0,0-2.9,3.873.721.721,0,0,1-.554.522l-4.921.993a.721.721,0,0,1-.712-.266,10.321,10.321,0,0,0-4.179-2.443l-4.789,4.225a10.321,10.321,0,0,0,1.9,4.452.72.72,0,0,1,.175.74l-1.6,4.759a.722.722,0,0,1-.586.484,10.324,10.324,0,0,0-4.205,2.4l1.264,6.261a10.324,10.324,0,0,0,4.806.578.722.722,0,0,1,.728.218l3.321,3.765a.72.72,0,0,1,.126.75,10.316,10.316,0,0,0-.026,4.841l6.053,2.036A10.332,10.332,0,0,0,3054.012,1019.855Zm1.695-7.549a7.825,7.825,0,1,1,6.122-9.219A7.826,7.826,0,0,1,3055.707,1012.306Z" transform="translate(-2994.073 -957.708)" fill="url(#linear-gradient-18)"/>
        </g>
        <path id="Path_3087" data-name="Path 3087" d="M1945.14,735.807l-5.469-2.062-4.8,3.337a.8.8,0,0,1-1.261-.7l.271-5.839-4.656-3.533a.8.8,0,0,1,.273-1.414l5.636-1.547,1.921-5.52a.8.8,0,0,1,1.43-.178l3.213,4.883,5.844.121a.8.8,0,0,1,.611,1.3l-3.651,4.564,1.69,5.6A.8.8,0,0,1,1945.14,735.807Z" transform="translate(-1807.708 -620.839)" fill="url(#linear-gradient-19)"/>
        <path id="Path_3088" data-name="Path 3088" d="M1947.027,623.8l-2.973-7.982-7.605,2.274-3.275-7.734-7.536,1.277-3.4-5.387-2.727,1.72,4.544,7.2,7.142-1.21,3.408,8.045,7.48-2.237L1944.78,627Z" transform="translate(-1801.228 -543.764)" fill="url(#linear-gradient-20)"/>
        <path id="Path_3089" data-name="Path 3089" d="M2968.942,772.15l-7.47-4.092-4.264,6.7-7.537-3.706-4.864,5.9-6.094-1.851-.937,3.085,8.15,2.476,4.609-5.588,7.841,3.856,4.194-6.585,6.77,3.708Z" transform="translate(-2503.547 -655.37)" fill="url(#linear-gradient-21)"/>
        <path id="Path_3090" data-name="Path 3090" d="M2396.516,455.177l-3.2,7.9,7.146,3.457-2.805,7.916,6.422,4.146-1.131,6.268,3.173.572,1.512-8.383-6.085-3.929,2.918-8.236-7.028-3.4,2.9-7.155Z" transform="translate(-2128.023 -438.984)" fill="url(#linear-gradient-22)"/>
        <path id="Path_3091" data-name="Path 3091" d="M2970.033,1084.192l-1.571-3.1-3.537.12-1.516-3.594-3.729,1.29-1.893-3.989-3.58.764-2.449-3.54,1.34-.927,1.831,2.647,3.777-.807,1.819,3.834,3.791-1.311,1.672,3.966,3.455-.117,1.456,2.869,2.252-.552.388,1.583Z" transform="translate(-2513.191 -864.469)" fill="url(#linear-gradient-23)"/>
        <path id="Path_3092" data-name="Path 3092" d="M2787.4,601.734l-1.653-4.918,7.619-3.534-1.531-7.489,5.269-3.577-1.811-2.667-7.048,4.784,1.45,7.1-7.926,3.677,2.488,7.4Z" transform="translate(-2395.949 -525.351)" fill="url(#linear-gradient-24)"/>
        <g id="Group_3698" data-name="Group 3698" transform="translate(407.748 57.735)">
          <path id="Path_3093" data-name="Path 3093" d="M2897.177,598.255c8.4,12.839-3.025,30.658-17.985,28.007a11.331,11.331,0,0,0-7.894,1.625l-8.273,5.1a4.775,4.775,0,0,1-6.582-1.4l-3.182-4.864a5.415,5.415,0,0,1,1.086-7c7.481-6.407,10.664-8.225,11.669-13.6C2868.955,590.412,2888.774,585.413,2897.177,598.255Z" transform="translate(-2852.431 -590.948)" fill="#edfdfc"/>
          <g id="Group_3697" data-name="Group 3697" transform="translate(9.408 6.856)">
            <path id="Path_3094" data-name="Path 3094" d="M2898.359,620.558a15.818,15.818,0,0,1-.391-2.262c-.382-4.488,3.086-6.04,4.914-4.883a3.306,3.306,0,0,1,.972,4.089,10.914,10.914,0,0,1-3.244,3.681,21.68,21.68,0,0,0,3.329,6.835c4.091-2.465,7.014-1.117,7.2,1.114a3.638,3.638,0,0,1-2.183,3.511c-.828.36-2.97.856-5.506-1.95-6.906,4.87-15.917,12.067-15.946,12.088l-1.144-1.591c.028-.021,8.989-7.171,15.869-12.034a23.525,23.525,0,0,1-3.294-6.508c-7.87,6.87-14.807,12.3-15.049,12.5l-1.14-1.594C2883.254,633.144,2889.975,627.912,2898.359,620.558Zm3.319-5.468c-.61-.232-2.23.44-1.578,3.94C2901.922,617.432,2902.478,616.732,2901.678,615.091Zm3.521,14.468c1.006,1.046,2.527,1.991,3.549.86C2910.06,628.97,2908.185,627.884,2905.2,629.559Z" transform="translate(-2882.751 -613.045)" fill="#b7d972"/>
          </g>
          <path id="Path_3095" data-name="Path 3095" d="M2871.509,677.2c-.07.041-.143.076-.211.118l-8.273,5.1a4.775,4.775,0,0,1-6.582-1.4l-3.182-4.864a5.415,5.415,0,0,1,1.086-7c3.328-2.851,5.8-4.792,7.617-6.543Z" transform="translate(-2852.431 -640.375)" fill="#b7d972"/>
        </g>
        <g id="Group_3702" data-name="Group 3702" transform="translate(36.012 218.12)">
          <g id="Group_3701" data-name="Group 3701">
            <g id="Group_3699" data-name="Group 3699" transform="translate(11.009 50.417)">
              <path id="Path_3096" data-name="Path 3096" d="M1698.272,1337.383s-.268-1.315-.324-1.758c-.065-.521-.139-2.095-.139-2.095s0-5.5.4-5.464.933.976,1.052,1.315.291.724.41,1.063a.7.7,0,0,0,.9.413c.432-.119.251-1.574.089-2.064a56.959,56.959,0,0,0-2.9-5.755c-.252-.489,1.5-10.023,1.841-13.336h0c.719-5.408,1.73-10.932,1.809-11.5l9.631-21.288-6.429-6.565s-11.021,23.475-11.438,24.712c-.2.589-.895,13.253-.89,13.253.05,6.257.11,11.771.091,12.83,0,0-.907,3.154-1.6,5.128a18.092,18.092,0,0,0-.655,4.655,13.488,13.488,0,0,0-.17,4.575c.29,2.152,1.008-.033,1.008-.033s.185-4.091.507-4.025c.248.051.014,2.281.31,4.665.076.613.153,1.218.229,1.773.2,1.456,1.156,1.741,1.193.181a14.6,14.6,0,0,0-.08-2.117,12.088,12.088,0,0,1,.042-1.991,15.861,15.861,0,0,1,.057-2.052c.064.035.237-.2.338.444.121.779.01,2.5.278,3.626.152.641.387,2,.387,2a13.789,13.789,0,0,0,.756,2.155c.715-.03.713-1.709.392-2.551a9.787,9.787,0,0,0-.214-2.068s.068-3.017.5-3.018c.353,0,1.592,7.238,2.306,7.157C1698.546,1339.578,1698.272,1337.383,1698.272,1337.383Z" transform="translate(-1689.838 -1270.345)" fill="#f7a491"/>
            </g>
            <path id="Path_3097" data-name="Path 3097" d="M1721.564,1264.266a45.757,45.757,0,0,1-6.118-1.48c-2.827-1.052-4.687-1.973-4.687-1.973s3.1-13.284,6.977-21.35c1.6-3.334,3.219-4.943,5.476-5.328.014,0,4.759,3.125,4.571,10.656C1727.739,1246.559,1721.564,1264.266,1721.564,1264.266Z" transform="translate(-1693.259 -1194.953)" fill="url(#linear-gradient-25)"/>
            <g id="Group_3700" data-name="Group 3700">
              <path id="Path_3098" data-name="Path 3098" d="M1785.192,1475.12l5.181,47.661s-2.532,10.079-2.227,12.942,5.631,40.426,5.631,40.426l-.225,2.107-.006,6.222h19.768a88.318,88.318,0,0,1-10.065-5.759,4.181,4.181,0,0,1-1.677-2.982c-1.567-11.578,1.534-50.2,1.534-50.2l2.442-50.268Z" transform="translate(-1744.596 -1361.166)" fill="#f7a491"/>
              <path id="Path_3099" data-name="Path 3099" d="M1701.67,1507.431c-1.116.291-2.835,41.271-3.759,43.087-5.862,11.515-7.254,46.523-7.254,46.523l-1.7,4.985-1.824,6.113s5.853,1.6,8.923-.142l-.341-6.026-.312-5.511,14.788-43.616,8.091-44.488Z" transform="translate(-1676.96 -1383.452)" fill="#f7a491"/>
              <path id="Path_3100" data-name="Path 3100" d="M1764.28,1222.555c-2.385-3.357-12.227-13.079-13.321-13.059-3.187.057-13.649.062-15.695,1.131l.012,2.29a123.24,123.24,0,0,0,3.937,30.341c1.8,6.906,3.5,14.281,3.286,16.929l.05.05a14.2,14.2,0,0,0,21.136-1.047h0a125.832,125.832,0,0,1,.828-14.038C1765.85,1234.662,1770.206,1230.893,1764.28,1222.555Z" transform="translate(-1710.161 -1177.959)" fill="#b7d972"/>
              <path id="Path_3101" data-name="Path 3101" d="M1773.829,1170.466s.276,6.828-.32,9.417-1.39,2.785,3.725,3.573c2.009.31,3.947.771,3.947.771s-.525-3.8-.6-5.407c-.131-2.643.591-10.806.591-10.806Z" transform="translate(-1736.237 -1149.349)" fill="#f7a491"/>
              <path id="Path_3102" data-name="Path 3102" d="M1780.157,1173.864a8.992,8.992,0,0,0,2.942,1.075c.174-3.224.5-6.924.5-6.924l-7,2.338A9.312,9.312,0,0,0,1780.157,1173.864Z" transform="translate(-1738.67 -1149.349)" fill="#f47458"/>
              <path id="Path_3103" data-name="Path 3103" d="M1768.272,1113.724a8.945,8.945,0,0,0-4.536,4.25c-1.614,3.219-2.216,12.266,4.144,15.805,3.147,1.751,6.779,2.084,8.488.543,1.744-1.572,1.531-5.064,1.357-7.969C1777.378,1120.6,1776.113,1111.895,1768.272,1113.724Z" transform="translate(-1729.056 -1111.732)" fill="#f7a491"/>
              <path id="Path_3104" data-name="Path 3104" d="M1757.686,1145.849c.361,1.511-.121,2.969-1.076,3.256s-2.022-.7-2.383-2.214.121-2.969,1.076-3.256S1757.325,1144.339,1757.686,1145.849Z" transform="translate(-1723.156 -1132.499)" fill="#f7a491"/>
              <path id="Path_3105" data-name="Path 3105" d="M1695.6,1812.047a9.468,9.468,0,0,1-6.757.079l-1.874,6.136s5.894,1.746,8.963,0Z" transform="translate(-1676.847 -1593.552)" fill="url(#linear-gradient-26)"/>
              <path id="Path_3106" data-name="Path 3106" d="M1723.05,1585.871c0,.007,0,.006.007,0Z" transform="translate(-1701.736 -1437.553)" fill="#f47458"/>
              <path id="Path_3107" data-name="Path 3107" d="M1810.938,1815.259h20.55c.76-.07.945-.71.681-1.1-.542-.812-2.94-1.407-5.634-2.7-4.727.513-14.645-2.846-15.391-3.976C1810.714,1809.741,1810.516,1815.163,1810.938,1815.259Z" transform="translate(-1762.193 -1590.402)" fill="url(#linear-gradient-26)"/>
              <path id="Path_3108" data-name="Path 3108" d="M1840.975,1284.2c.4-.553,1.731-3.26,1.731-3.26s1.381-4.637,1.095-4.577a5.162,5.162,0,0,0-1.413,2.1c-.412.857-.863,2.359-1.29,3.1-.749,1.3-1.585,1.845-1.378,1.343.151-.366.664-.668,1.115-1.448,1.1-1.9,2.069-5,1.646-4.939-.372.055-1.433,2.195-2.61,3.858a12.159,12.159,0,0,1-2.883,2.211,3.93,3.93,0,0,1,.186-1.018c.116-.363,1.748-2.528,1.11-2.8s-4.524,4.416-4.524,4.416l-1.6,2.719-.141.1h-.006s-19.381,7.6-20.031,7.393c-1.525-.483-6.733-15.58-6.733-15.58l-10.844,1.955c-.156-.085,11.4,22.471,13.555,23.577,1.892.971,22.039-9.524,25.823-11.77,5.212-2.006,7.247-4.392,8.092-5.613.455-.657,2.2-3.51,2.2-3.51s.375-3.954.091-3.989c-.956-.117-1.22,3.609-1.22,3.609s-1.293,1.759-1.518,1.99C1840.876,1284.64,1840.975,1284.2,1840.975,1284.2Z" transform="translate(-1750.953 -1224.079)" fill="#f8a492"/>
              <path id="Path_3109" data-name="Path 3109" d="M1771.445,1225.032c-1.48,6.273,6.414,20.257,6.414,20.257s11.245-5.462,13.222-7.815c0,0-7.757-12.8-8.238-13.637-1.038-1.806-4.681-5.538-7.136-4.853C1774.143,1219.421,1771.445,1225.032,1771.445,1225.032Z" transform="translate(-1734.987 -1184.447)" fill="url(#linear-gradient-28)"/>
              <path id="Path_3110" data-name="Path 3110" d="M1692.6,1132.974c.841-5.755,10.385-17.48,6.7-22.38-2.983-3.965-8.183-2.779-11.5-1.639-15.026,5.169-14.163,24.059-18.906,27.012-8.6,5.356-13.89,8.691-14.51,20.757-.736,14.31,11.418,21.619,26.034,18.117,7.859-1.882,9.942-4.454,13.093-11.875,1.421-3.345,4.286-13.78,3.5-18.879C1696.313,1139.523,1691.924,1137.609,1692.6,1132.974Z" transform="translate(-1654.356 -1107.856)" fill="#473b1e"/>
              <path id="Path_3111" data-name="Path 3111" d="M1789.883,1147.956c0,1.7-.618,3.085-1.381,3.085s-1.381-1.381-1.381-3.085.619-3.085,1.381-3.085S1789.883,1146.252,1789.883,1147.956Z" transform="translate(-1745.926 -1133.386)" fill="#f7a491"/>
              <path id="Path_3112" data-name="Path 3112" d="M1764.5,1433.382l.7-28.275a55.963,55.963,0,0,0-4.631-23.188l-5.344-12.262a32.327,32.327,0,0,1-6.471,1.573c-4.941.571-9.8,0-14.715-.576a3.885,3.885,0,0,1-.068.5c-.892,4.165-5.859,13.448-7.951,26.136-2.375,14.4-3.263,35.945-2.966,37.635C1745.767,1435.956,1751.18,1436.775,1764.5,1433.382Z" transform="translate(-1701.703 -1288.425)" fill="#473b1e"/>
            </g>
          </g>
        </g>
        <g id="Group_3705" data-name="Group 3705" transform="translate(198.569 83.308)">
          <g id="Group_3704" data-name="Group 3704" transform="translate(176.385 138.218)">
            <path id="Path_3113" data-name="Path 3113" d="M2753.472,1118.834l17.1,17.1s32.571,12.737,36.21,20.561-3.276,7.46-10.918,6.368-29.295-14.557-29.295-14.557l-19.834-22.927Z" transform="translate(-2746.74 -1118.834)" fill="url(#linear-gradient-29)"/>
            <path id="Path_3114" data-name="Path 3114" d="M2886.41,1225.833l-4.23-1.5-8.188,3.821s-4.23,2.866-6.277,9.962,0,49.538,3.412,56.362S2886.41,1225.833,2886.41,1225.833Z" transform="translate(-2829.615 -1191.598)" fill="#edfdfc"/>
            <path id="Path_3115" data-name="Path 3115" d="M3016.354,1759.65s3.008,1.937,3.255,2.828,2.453,10.535,1.627,11.653-3.848.577-2.674,1.391c.886.615,6.6,1.085,10.259.1,1.067-.288.579-9.3.736-10.676.228-1.995,1.61-6.522.771-7.7-.409-.575-2.756-1.586-4.866-2.409a17.464,17.464,0,0,1-4.685-3.314Z" transform="translate(-2932.699 -1555.212)" fill="#f7a491"/>
            <path id="Path_3116" data-name="Path 3116" d="M3028.2,1761.957s-1.776,17.108-3.855,18.372c-.552.335-3.476.586-3.745,1.982-.007.035-.068,1.433.819,1.467l11.088-.034s.116-8.412.045-11.707c0,0,1.532-8.411,1.032-9.041S3028.2,1761.957,3028.2,1761.957Z" transform="translate(-2935.627 -1562.41)" fill="#002a24"/>
            <path id="Path_3117" data-name="Path 3117" d="M3156.219,1759.65s3.009,1.937,3.255,2.828,2.452,10.535,1.627,11.653-3.848.577-2.674,1.391c.887.615,6.6,1.085,10.259.1,1.066-.288.579-9.3.736-10.676.228-1.995,1.609-6.522.771-7.7-.409-.575-2.756-1.586-4.866-2.409a17.47,17.47,0,0,1-4.686-3.314Z" transform="translate(-3029.167 -1555.212)" fill="#f7a491"/>
            <path id="Path_3118" data-name="Path 3118" d="M2931.875,1419.364s10.139,20.134,12.218,25.539l15.451,39.2,34.076,40.086s-2.494,6.441-6.267,8.167c0,0-41.085-33.175-44.464-38.4-5.152-7.965-28.608-56.762-28.608-56.762l-4.361-9.386Z" transform="translate(-2859.289 -1326.116)" fill="#473b1e"/>
            <path id="Path_3119" data-name="Path 3119" d="M2888.51,1405.191l.163,17.168s-7.335,56.078-5.914,59.41c3.467,8.128,41.578,35.664,41.578,35.664l5.186-8.916-27.385-30.569,10.372-29.75c2.9-6.911,9.075-20.265,8.918-27.759-.134-6.422-12.865-21.314-12.865-21.314Z" transform="translate(-2840.429 -1312.156)" fill="#473b1e"/>
            <path id="Path_3120" data-name="Path 3120" d="M2900.162,1304.073c10.1-2.294,18.27-5.862,19.107-8.678.379-1.274-5.252-14.083-9.4-31.187-1.353-5.583-1.109-10.829-3.275-30.387-.46-4.148-2.179-12.844-8.6-15.087a9.645,9.645,0,0,0-3.516-.687c-.053.01-8.174.064-11.889,2.126-.916,1.245-4.334,8.052-5.244,26.612-.4,8.1-2.015,34.12-1.683,38.348q.074.941.188,1.821C2877.308,1298.187,2889.119,1306.581,2900.162,1304.073Z" transform="translate(-2835.632 -1187.261)" fill="#b7d972"/>
            <path id="Path_3121" data-name="Path 3121" d="M2894.33,1217.2a.134.134,0,0,0,.029,0c4.115-.454,14.469-14.019,14.469-14.019l-.022-.038-6.389-10.118s-9.41,1.713-7.568,4.579,2.873,9.737,2.873,9.737c-.031.078-.072.173-.129.287C2896.947,1209.035,2894.838,1213.193,2894.33,1217.2Z" transform="translate(-2848.536 -1170.007)" fill="#f7a491"/>
            <path id="Path_3122" data-name="Path 3122" d="M2895.476,1197.606c-1.841-2.863,7.57-4.577,7.57-4.577l.531.842a5.479,5.479,0,0,1-.264,1.92,12.3,12.3,0,0,1-6,6.61A18.23,18.23,0,0,0,2895.476,1197.606Z" transform="translate(-2849.162 -1170.008)" fill="#fe875e"/>
            <g id="Group_3703" data-name="Group 3703" transform="translate(35.161 1.466)">
              <path id="Path_3123" data-name="Path 3123" d="M2875.7,1139.173c.2-.193,7.34,11.545,5.626,16.378s-7.48,8.688-10.9,6.964c-3.787-1.907-9.514-15.37-6.062-21.08S2875.7,1139.173,2875.7,1139.173Z" transform="translate(-2862.295 -1133.616)" fill="#f7a491"/>
              <path id="Path_3124" data-name="Path 3124" d="M2863.135,1123.848c4.2-.9,11.7.338,15.927,3.309,5.194,3.654,5.365,10.139,3.025,14.378s-.931,7.361-.931,7.361-7.3-.458-8.779-5.427c-.62-2.085.152-3.5-1.251-4.673-1.08-.906-1.988-3.54-3.06-5.657,0,0-4.709-2.5-6.5-.443C2860.951,1133.4,2857.746,1125.005,2863.135,1123.848Z" transform="translate(-2860.06 -1123.559)" fill="#473b1e"/>
              <path id="Path_3125" data-name="Path 3125" d="M2892.53,1167.761c.639,1.533,1.879,2.476,2.77,2.1s1.1-1.915.458-3.448-1.879-2.475-2.77-2.1S2891.891,1166.228,2892.53,1167.761Z" transform="translate(-2882.199 -1151.612)" fill="#f7a491"/>
            </g>
            <path id="Path_3126" data-name="Path 3126" d="M3168.113,1762.021s-1.823,17.088-3.9,18.352c-.552.335-3.476.586-3.745,1.982-.007.035-.091,1.478.819,1.456l11.077-.023s.127-8.412.057-11.707c0,0,1.531-8.411,1.031-9.041S3168.113,1762.021,3168.113,1762.021Z" transform="translate(-3032.093 -1562.454)" fill="#002a24"/>
          </g>
          <path id="Path_3127" data-name="Path 3127" d="M2245.735,932.182c-8.8-18.416-11.222-45.9-1.627-67.7,16.175-36.795,60.682-51.811,57.4-93.511-.825-10.5-5.5-18.952-12.382-24.387-18.115-14.3-47.261-6.733-68.064,3.255A130.369,130.369,0,0,0,2184.051,777l-5.787-73.651c24.971-17.72,55.187-26.985,85.345-29.354,61.8-4.856,109.521,18.323,114.378,80.138,4.43,56.377-33.669,81.353-59.226,109.536-14.186,15.644-17.391,27.695-16.295,41.654.567,7.216,3.274,16.127,7.624,21.806Zm44.373,100.715c-60.07,4.72-67.026-75.98-6.345-80.748C2343.534,947.452,2349.947,1028.2,2290.108,1032.9Z" transform="translate(-2178.264 -673.367)" fill="url(#linear-gradient-30)"/>
          <path id="Path_3128" data-name="Path 3128" d="M2703.489,1101.476c-.112-.508.3-.107-.464-4.087a7.5,7.5,0,0,0-1.47-3,6.852,6.852,0,0,0-1.363-1.191.682.682,0,0,0-1.088.637c.138.378.847,1.685.985,2.063s.2,1.307-.115,1.615-5.289-5.4-5.6-5.9a19.744,19.744,0,0,1-.852-2.28s-.434-1.35-.963-1.006c-.346.225-.728,1.337.27,3.528.872,1.914,2.078,3.443,1.941,3.556-.358.294-2.518-2.293-2.518-2.293a11.4,11.4,0,0,0-1.265-1.954c-.322-.958-.908-2.149-1.521-1.683a12.375,12.375,0,0,0,.294,2.128s.754,1.35,1.075,2.014c.566,1.172,1.856,2.595,2.3,3.359.368.635.011.488-.019.563a16.9,16.9,0,0,1-1.429-1.695,14.03,14.03,0,0,1-1.423-1.709,16.962,16.962,0,0,0-1.411-1.9c-1.119-1.336-1.715-.428-.863.98.325.536.683,1.118,1.047,1.705,1.418,2.286,3.167,4.072,3,4.287-.221.28-3.227-3.165-3.227-3.165s-2.12-1.413-.859.666a21.325,21.325,0,0,0,3.119,4.019,20.192,20.192,0,0,0,3.784,3.724c1.954,1.244,5.124,3.122,5.124,3.122.364.439,1.292,1.868,2.575,3.887l4.738-5.7A37.137,37.137,0,0,1,2703.489,1101.476Z" transform="translate(-2529.528 -959.534)" fill="#f8a492"/>
          <path id="Path_3129" data-name="Path 3129" d="M2726.878,1144l6.551-5.732,22.495,22.2s34.824,3.053,34.915,3.079l1.395.436c12.632,4.363,7.431,14.671,5,16.267-5.67,3.716-37.156,1.488-47.244-4.769C2741.682,1170.331,2726.878,1144,2726.878,1144Z" transform="translate(-2556.655 -994.022)" fill="url(#linear-gradient-31)"/>
        </g>
        <g id="Group_3708" data-name="Group 3708" transform="translate(125.571 184.01)">
          <path id="Path_3130" data-name="Path 3130" d="M1971.355,1250.2a7.536,7.536,0,0,0,.715,1.848,69.906,69.906,0,0,0,6.832,9.7l3.693-8.88s-.6-2.789-1.646-6.775C1977.382,1247.093,1973.985,1247.668,1971.355,1250.2Z" transform="translate(-1962.556 -1169.095)" fill="#f8a492"/>
          <path id="Path_3131" data-name="Path 3131" d="M1973.356,1165.484s-20.6,9.467-21.265,9.286c-.429-.116-8.449-14.444-8.535-27.918-.04-6.223,6.016-13.709,12.772-12.228,3.4.745,3.349,1.755,8.381,9.559S1973.356,1165.484,1973.356,1165.484Z" transform="translate(-1943.382 -1092.077)" fill="url(#linear-gradient-32)"/>
          <path id="Path_3132" data-name="Path 3132" d="M2093.209,1781.551s-.489,8.634-.492,8.652c-.18,1.1-.887,3.8-.887,4.8,0,3.744,16.657-3.178,12.924-4.837-.338-.151-2.108-1.286-2.219-2.56-.171-1.963-.606-5.935-.606-5.935Z" transform="translate(-2045.65 -1538.408)" fill="#f7a491"/>
          <path id="Path_3133" data-name="Path 3133" d="M2103.4,1808.863a60.057,60.057,0,0,1-5.914,1.432c-2,.286-4.643-2.125-6.06-1.473-1.56.716-1.5,7.168-1.5,7.168s20.972,1.837,26.869-.063C2119.134,1815.174,2111.4,1811.531,2103.4,1808.863Z" transform="translate(-2044.339 -1557.14)" fill="#473b1e"/>
          <path id="Path_3134" data-name="Path 3134" d="M1983.389,1781.551s-.489,8.634-.492,8.652c-.18,1.1-.887,3.8-.887,4.8,0,3.744,16.657-3.178,12.924-4.837-.338-.151-2.633-2.134-2.744-3.408-.171-1.963-.081-5.087-.081-5.087Z" transform="translate(-1969.905 -1538.408)" fill="#f7a491"/>
          <path id="Path_3135" data-name="Path 3135" d="M1993.308,1808.863a60.054,60.054,0,0,1-5.914,1.432c-2,.286-4.644-2.125-6.06-1.473-1.56.716-1.622,7.168-1.622,7.168s21.067,2.141,26.992-.063C2009.006,1815.07,2001.3,1811.531,1993.308,1808.863Z" transform="translate(-1968.321 -1557.14)" fill="#473b1e"/>
          <g id="Group_3706" data-name="Group 3706" transform="translate(18.575 18.104)">
            <path id="Path_3136" data-name="Path 3136" d="M2002.861,1124.057l14.671-21.933c.062-.193.195-.585.4-1.185.739-2.176,2.276-6.705,3.616-11.211l.014-.048c.421-1.575,1.313-4.322,2.176-6.979.959-2.955,2.149-6.619,2.191-7.244-.037-.107-.106-.3-.2-.553a53.458,53.458,0,0,1-1.522-6.582c-.164-.983-.327-3.371.767-3.371,1.721,0,.9,2.385,1.694,3.875a39.6,39.6,0,0,0,1.193-4.97l.288-4.663c.055-.352-.3-2.924.912-2.924l.058,0c1.084.084,1.06,2.819,1.511,7.445.142-.532.285-1.175.393-1.764a18,18,0,0,1,.367-2.441c-.218-1.289-.091-3.322,1.195-3.13.645.1.592,2.933.592,2.933-.007.39-.045,3.389-.025,3.982.133-1.006.648-5.3,1.657-5.3.837,0,.9,1.155.887,2.07-.01.541-.536,5.192-.565,5.733.394-.706.861-4.8,1.251-4.8,1.632,0,1.042,5.828.442,7.346a7.176,7.176,0,0,0-.186.813,14.976,14.976,0,0,1-1.4,4.336c-1.024,1.871-2.437,4.845-2.653,5.3-.158.929-.649,4.27-1.266,8.472-.264,1.8-.554,3.77-.856,5.813l-.016,0c-.056.442-.361,1.847-1.522,7.12-1.588,7.215-1.753,7.527-1.823,7.66-.689,1.3-16.507,24.228-17.18,25.2l-.4.575Z" transform="translate(-2002.861 -1056.267)" fill="#f7a491"/>
            <path id="Path_3137" data-name="Path 3137" d="M2083.445,1102.374s-1.191-3.25-3.311-3.256a2.308,2.308,0,0,1,2.2.4A4.656,4.656,0,0,1,2083.445,1102.374Z" transform="translate(-2056.158 -1085.739)" fill="#f47458"/>
          </g>
          <g id="Group_3707" data-name="Group 3707">
            <path id="Path_3138" data-name="Path 3138" d="M1987.239,1087.984l-1.889,12.747s7.2,6.167,11.391,4.866c3.519-1.092,1.106-6,1.106-6s-1.875-6.8-1.3-10.371S1987.239,1087.984,1987.239,1087.984Z" transform="translate(-1972.209 -1059.525)" fill="#f7a491"/>
            <path id="Path_3139" data-name="Path 3139" d="M1991.986,1091.84a27.988,27.988,0,0,0,8.145,2.45,18.029,18.029,0,0,1-.192-5.064c.265-1.646-1.7-2.035-3.887-1.979-2.866.262-5.421.74-5.421.74l-.363,2.45A5.975,5.975,0,0,0,1991.986,1091.84Z" transform="translate(-1975.6 -1059.527)" fill="#fe875e"/>
            <path id="Path_3140" data-name="Path 3140" d="M1962.125,1027.027c-.3,0,2.845,14.241,7.706,16.69s12.112,1.173,13.473-2.662c1.5-4.242-3.984-18.769-10.822-20.615S1962.125,1027.027,1962.125,1027.027Z" transform="translate(-1956.177 -1013.271)" fill="#f7a491"/>
            <path id="Path_3141" data-name="Path 3141" d="M1954.571,998.594a16.083,16.083,0,0,0-6.265,7.387c-1.823.923-4.028,2.92-5.086,8.3-1.3,6.615,3.326,11.714,8.233,13.247s5.735,5,5.735,5l.485-3.729a15.028,15.028,0,0,0-2.733-4.871c-1.641-1.625.778-3.993.99-5.925.163-1.487-.863-4.375-.641-6.816,0,0,2.726-4.41,5.414-5.5C1965.285,1003.829,1959.553,995.527,1954.571,998.594Z" transform="translate(-1942.997 -997.921)" fill="#002a24"/>
            <path id="Path_3142" data-name="Path 3142" d="M1978.493,1065.331c.635,1.645.375,3.277-.58,3.647s-2.246-.664-2.881-2.309-.376-3.277.58-3.647S1977.858,1063.686,1978.493,1065.331Z" transform="translate(-1964.852 -1042.771)" fill="#f7a491"/>
          </g>
          <path id="Path_3143" data-name="Path 3143" d="M2045.326,1245.711l28.3-4.924s-3.219-8.651-4.37-8.651-21.4,9.433-21.4,9.433l-1.61,3.451Z" transform="translate(-2013.575 -1159.464)" fill="#f8a492"/>
          <path id="Path_3144" data-name="Path 3144" d="M1987.892,1339.554s-2.823,14.565-1.672,25.609,1.241,50.274,1.241,50.274l-4.39,62.77,10.416.243s12.352-62.74,12.121-61.129,4.141-44.175,4.141-44.175l-14.725-34.971Z" transform="translate(-1970.637 -1232.601)" fill="url(#linear-gradient-33)"/>
          <path id="Path_3145" data-name="Path 3145" d="M2005.959,1329.658s-1.841,13.115.46,18.866,19.734,62.189,19.964,66.79,6.027,55.462,6.027,55.462l12.112-.363,2.62-56.547-5.487-71.071-5.327-17.969Z" transform="translate(-1985.942 -1223.395)" fill="url(#linear-gradient-34)"/>
          <path id="Path_3146" data-name="Path 3146" d="M1985.35,1121.556s2.987,2.091,5.772,1.849,6.724-2.986,6.724-2.986l-.547-1.98s-7.207-1.12-7.388-1S1985.35,1121.556,1985.35,1121.556Z" transform="translate(-1972.209 -1080.349)" fill="#f7a491"/>
          <path id="Path_3147" data-name="Path 3147" d="M2087.946,1207s10.7,10.78,15.535,8.94,6.831-8.133-4.958-17.337C2087.973,1190.367,2087.946,1207,2087.946,1207Z" transform="translate(-2042.972 -1134.757)" fill="#f8a492"/>
          <path id="Path_3148" data-name="Path 3148" d="M2002.229,1172.087c-1.59-9.232-13.115-37.962-14.035-43.254-.447-2.574-6.663-2.63-12.584-2.295-6.254.355-12.467,1.2-12.467,1.2s-5.536.97-7.972,3.406-3.083,9.173.419,21.961c2.764,10.095,6.191,15.639,7.887,22.992.343,2.467.638,4.9,1.027,7.743.623,11-.007,25.52-.007,25.52s30.14,6.672,41.414-3.451C2005.91,1205.908,2003.858,1181.546,2002.229,1172.087Z" transform="translate(-1950.001 -1086.531)" fill="url(#linear-gradient-35)"/>
          <path id="Path_3149" data-name="Path 3149" d="M2061.128,1153.055s-11.826,10.419-12.517,10.419c-.444,0-16.877-12.9-20.67-23.5-2.1-5.859,2.3-12.415,7.325-12.393,3.482.015,5.03.973,11.933,7.185S2061.128,1153.055,2061.128,1153.055Z" transform="translate(-2001.216 -1087.351)" fill="url(#linear-gradient-36)"/>
        </g>
        <g id="Group_3709" data-name="Group 3709" transform="translate(314.273 7.108)">
          <path id="Path_3150" data-name="Path 3150" d="M2603.038,463.829l-25.643,17.348a5.691,5.691,0,0,1-7.9-1.525l-17.348-25.643a5.691,5.691,0,0,1,1.525-7.9l25.643-17.348a5.691,5.691,0,0,1,7.9,1.525l17.348,25.642A5.692,5.692,0,0,1,2603.038,463.829Z" transform="translate(-2551.167 -427.781)" fill="#b7d972"/>
          <path id="Path_3151" data-name="Path 3151" d="M2617.823,471.172a14.509,14.509,0,1,1-20.147-3.887A14.509,14.509,0,0,1,2617.823,471.172Z" transform="translate(-2578.844 -453.308)" fill="#fff"/>
          <path id="Path_3152" data-name="Path 3152" d="M2622.662,492.345l5.952,6.49a1.168,1.168,0,0,1-1.721,1.579,1.211,1.211,0,0,1-.176-.252Z" transform="translate(-2600.479 -472.312)" fill="#b7d972"/>
          <path id="Path_3153" data-name="Path 3153" d="M2636.12,502.251l8.979-5.027-7.833,6.673a1.008,1.008,0,1,1-1.308-1.535A1.055,1.055,0,0,1,2636.12,502.251Z" transform="translate(-2609.405 -475.677)" fill="#b7d972"/>
        </g>
        <path id="Rectangle_2208" data-name="Rectangle 2208" d="M22.323,0H63.506A22.324,22.324,0,0,1,85.83,22.324v0A22.324,22.324,0,0,1,63.506,44.647H22.324A22.324,22.324,0,0,1,0,22.324v0A22.323,22.323,0,0,1,22.323,0Z" transform="translate(44.498 138.96)" fill="#b7d972"/>
        <path id="Path_3154" data-name="Path 3154" d="M1925.5,919.325l21.139,9.474-14.153-19.81Z" transform="translate(-1805.358 -752.573)" fill="#b7d972"/>
        <g id="Group_3710" data-name="Group 3710" transform="translate(65.673 156.549)">
          <path id="Path_3155" data-name="Path 3155" d="M1757.355,912.709a3.728,3.728,0,1,1-3.7-3.291A3.515,3.515,0,0,1,1757.355,912.709Z" transform="translate(-1749.95 -909.418)" fill="#fff"/>
          <path id="Path_3156" data-name="Path 3156" d="M1812.873,912.709a3.728,3.728,0,1,1-3.7-3.291A3.515,3.515,0,0,1,1812.873,912.709Z" transform="translate(-1788.242 -909.418)" fill="#fff"/>
          <path id="Path_3157" data-name="Path 3157" d="M1868.391,912.709a3.728,3.728,0,1,1-3.7-3.291A3.515,3.515,0,0,1,1868.391,912.709Z" transform="translate(-1826.534 -909.418)" fill="#fff"/>
        </g>
        <g id="Group_3711" data-name="Group 3711" transform="translate(303.546)">
          <path id="Path_3158" data-name="Path 3158" d="M2520.081,413.658l-3.484-7.427,2.894-1.358,1.975,4.211,4.825-2.918,1.655,2.736Z" transform="translate(-2516.596 -404.873)" fill="url(#linear-gradient-37)"/>
        </g>
        <g id="Group_3712" data-name="Group 3712" transform="translate(101.038 107.338)">
          <path id="Path_3159" data-name="Path 3159" d="M1872.728,759.1,1865,761.854l-1.074-3.011,4.38-1.562-2.442-5.083,2.882-1.385Z" transform="translate(-1863.927 -750.814)" fill="url(#linear-gradient-38)"/>
        </g>
        <g id="Group_3713" data-name="Group 3713" transform="translate(429.98 39.238)">
          <path id="Path_3160" data-name="Path 3160" d="M2924.146,532.9q.861,2.745,1.721,5.489c.449,1.432.783,3.756,2.18,4.568a.809.809,0,0,0,1.1-.288c.692-1.525-.3-3.476-.781-4.969l-1.752-5.48c-.5-1.561-2.962-.9-2.467.68Z" transform="translate(-2924.08 -531.333)" fill="#b7d972"/>
        </g>
        <g id="Group_3714" data-name="Group 3714" transform="translate(446.557 37.942)">
          <path id="Path_3161" data-name="Path 3161" d="M2980.362,528.04c-2.964,10.116-2.993,9.811-2.773,10.844a1.1,1.1,0,0,0,1.816.479c.692-.714.52-.5,3.383-10.654a1.259,1.259,0,0,0-2.426-.669Z" transform="translate(-2977.508 -527.155)" fill="#b7d972"/>
        </g>
        <g id="Group_3715" data-name="Group 3715" transform="translate(458.793 54.619)">
          <path id="Path_3162" data-name="Path 3162" d="M3018.866,587.627l5.238-2.513c1.553-.745,3.557-1.337,4.619-2.749.467-.621-.175-1.438-.836-1.458-1.725-.051-3.563,1.271-5.071,2l-5.225,2.536c-1.464.71-.184,2.881,1.275,2.181Z" transform="translate(-3016.944 -580.906)" fill="#b7d972"/>
        </g>
        <g id="Group_3716" data-name="Group 3716" transform="translate(454.723 89.624)">
          <path id="Path_3163" data-name="Path 3163" d="M3004.1,695.827a83.381,83.381,0,0,0,5.615,6.788c1.092,1.136,2.679-.532,1.7-1.7-1.882-2.258-3.814-4.458-5.63-6.772-.95-1.21-2.616.491-1.688,1.688Z" transform="translate(-3003.828 -693.723)" fill="#b7d972"/>
        </g>
        <g id="Group_3717" data-name="Group 3717" transform="translate(460.972 77.599)">
          <path id="Path_3164" data-name="Path 3164" d="M3024.579,657.3c1.617.709,3.254,1.367,4.9,2.01,1.5.587,3.283,1.638,4.908,1.406.862-.123.962-1.274.477-1.807-.607-.669-.934-.617-4.5-1.993-1.611-.621-3.209-1.273-4.827-1.877-1.3-.485-2.237,1.7-.953,2.26Z" transform="translate(-3023.967 -654.967)" fill="#b7d972"/>
        </g>
      </g>
    </g>
  </g>
</svg>
